<svg width="30" height="30" viewBox="0 0 30 30" fill="none" xmlns="http://www.w3.org/2000/svg">
<rect width="30" height="30" fill="#3CBBB4" fill-opacity="0.8"/>
<path fill-rule="evenodd" clip-rule="evenodd" d="M10.3956 14.1074C12.3333 11.4086 13.0209 10.6394 12.9061 9.07721C12.7914 7.51501 13.1196 7.08545 13.9004 7.00853C14.6812 6.93161 16.1472 7.33437 16.4045 9.89138C16.5156 10.9977 15.6804 13.1757 15.6804 13.1757L21.5244 13.1787C22.3518 13.1787 23 13.5136 23 14.581C23 15.581 21.8311 15.8818 21.8311 15.8818C22.2946 16.0791 22.5889 16.5189 22.579 16.9993C22.5818 17.6772 22.0051 18.2301 21.288 18.237C21.7786 18.4233 22.0587 18.9138 21.9545 19.4038C21.8656 19.991 21.3849 20.4563 20.766 20.5541C21.1713 20.8252 21.3388 21.3165 21.1774 21.7603C20.915 22.3463 20.2225 22.9923 18.6669 22.9923L11.3999 22.9923C10.9674 23.0441 10.5477 22.831 10.3544 22.4616L10.3544 14.4341C10.3514 14.3239 10.3653 14.2138 10.3956 14.1074ZM7 13.5914L9.84289 13.5914L9.84289 22.9906L7 22.9906L7 13.5914Z" fill="white"/>
</svg>
