<svg width="30" height="30" viewBox="0 0 30 30" fill="none" xmlns="http://www.w3.org/2000/svg">
<rect width="30" height="30" fill="#FBBD4A"/>
<path fill-rule="evenodd" clip-rule="evenodd" d="M19.6044 15.8926C17.6667 18.5914 16.9791 19.3606 17.0939 20.9228C17.2086 22.485 16.8804 22.9145 16.0996 22.9915C15.3188 23.0684 13.8528 22.6656 13.5955 20.1086C13.4844 19.0023 14.3196 16.8243 14.3196 16.8243L8.47561 16.8213C7.64821 16.8213 7 16.4864 7 15.419C7 14.419 8.16888 14.1182 8.16888 14.1182C7.70539 13.9209 7.41113 13.4812 7.42102 13.0007C7.41821 12.3228 7.99488 11.7699 8.71195 11.763C8.22145 11.5767 7.94125 11.0862 8.04546 10.5962C8.1344 10.009 8.61511 9.54375 9.23399 9.44586C8.82873 9.17481 8.66115 8.68354 8.82258 8.23974C9.08497 7.65375 9.77752 7.00769 11.3331 7.00769L18.6001 7.00769C19.0326 6.95594 19.4523 7.16897 19.6456 7.53836V15.5659C19.6486 15.6761 19.6347 15.7862 19.6044 15.8926ZM23 16.4086H20.1571V7.00942H23L23 16.4086Z" fill="white"/>
</svg>
